<?xml version="1.0" encoding="UTF-8" standalone="no"?>
<!-- Created with Inkscape (http://www.inkscape.org/) -->

<svg
   width="210mm"
   height="297mm"
   viewBox="0 0 210 297"
   version="1.1"
   id="svg1"
   inkscape:version="1.3.2 (1:1.3.2+202404261509+091e20ef0f)"
   sodipodi:docname="hockey.svg"
   xmlns:inkscape="http://www.inkscape.org/namespaces/inkscape"
   xmlns:sodipodi="http://sodipodi.sourceforge.net/DTD/sodipodi-0.dtd"
   xmlns="http://www.w3.org/2000/svg"
   xmlns:svg="http://www.w3.org/2000/svg">
  <sodipodi:namedview
     id="namedview1"
     pagecolor="#ffffff"
     bordercolor="#000000"
     borderopacity="0.25"
     inkscape:showpageshadow="2"
     inkscape:pageopacity="0.0"
     inkscape:pagecheckerboard="0"
     inkscape:deskcolor="#d1d1d1"
     inkscape:document-units="mm"
     inkscape:zoom="0.66245342"
     inkscape:cx="312.4748"
     inkscape:cy="522.30087"
     inkscape:window-width="1854"
     inkscape:window-height="1011"
     inkscape:window-x="0"
     inkscape:window-y="0"
     inkscape:window-maximized="1"
     inkscape:current-layer="g1"
     showgrid="false" />
  <defs
     id="defs1" />
  <g
     inkscape:label="Layer 1"
     inkscape:groupmode="layer"
     id="layer1">
    <g
       id="g1">
      <g
         id="g9"
         transform="matrix(0.74310397,-0.27990996,0.27990996,0.74310397,-82.998199,-1.3677249)">
        <ellipse
           style="fill:#000000;fill-opacity:1;stroke:none;stroke-width:5.82599;stroke-linecap:round;stroke-linejoin:round;stroke-dasharray:none;stroke-opacity:1"
           id="path5"
           cx="97.456589"
           cy="167.10454"
           rx="41.806232"
           ry="24.631571" />
        <path
           id="ellipse6"
           style="opacity:1;fill:#1be8ff;fill-opacity:1;stroke:none;stroke-width:4.89339;stroke-linecap:round;stroke-linejoin:round;stroke-dasharray:none;stroke-opacity:1"
           d="m 65.955147,158.06477 a 35.114079,20.68866 0 0 0 -3.612699,9.03976 35.114079,20.68866 0 0 0 35.114136,20.68866 35.114079,20.68866 0 0 0 15.342216,-2.12804 40.991684,24.151653 0 0 1 -6.4146,0.33125 40.991684,24.151653 0 0 1 -40.991809,-24.15202 40.991684,24.151653 0 0 1 0.562756,-3.77961 z" />
        <path
           id="path7"
           style="opacity:1;fill:#1be8ff;fill-opacity:1;fill-rule:nonzero;stroke:none;stroke-width:4.893;stroke-linecap:round;stroke-linejoin:round;stroke-dasharray:none;stroke-opacity:1"
           d="m 128.95797,176.1443 a 35.114079,20.68866 0 0 0 3.6127,-9.03976 35.114079,20.68866 0 0 0 -35.114141,-20.68866 35.114079,20.68866 0 0 0 -15.34222,2.12804 40.991684,24.151653 0 0 1 6.4146,-0.33125 40.991684,24.151653 0 0 1 40.991811,24.15202 40.991684,24.151653 0 0 1 -0.56275,3.77961 z" />
        <path
           id="path6"
           style="opacity:1;fill:#1be8ff;fill-opacity:1;stroke:none;stroke-width:4.89339;stroke-linecap:round;stroke-linejoin:round;stroke-dasharray:none;stroke-opacity:1"
           d="m 65.955147,158.06477 a 35.114079,20.68866 0 0 0 -3.612699,9.03976 35.114079,20.68866 0 0 0 35.114136,20.68866 35.114079,20.68866 0 0 0 15.342216,-2.12804 40.991684,24.151653 0 0 1 -6.4146,0.33125 40.991684,24.151653 0 0 1 -40.991809,-24.15202 40.991684,24.151653 0 0 1 0.562756,-3.77961 z" />
        <path
           id="path8"
           style="opacity:1;fill:#ffffff;fill-opacity:1;stroke:none;stroke-width:4.89339;stroke-linecap:round;stroke-linejoin:round;stroke-dasharray:none;stroke-opacity:1"
           d="m 74.218767,165.81354 c -0.701027,3.04596 -0.07218,6.33965 1.701631,8.91341 2.491128,3.75363 6.613452,6.11093 10.702044,7.6258 7.345183,2.60965 15.352198,2.91751 23.054618,1.87329 0.99798,-0.14099 1.9909,-0.315 2.98126,-0.50187 -8.58709,0.46946 -17.434187,-0.50366 -25.32875,-4.08257 -5.011272,-2.30927 -9.749134,-5.92377 -12.039645,-11.08173 -0.446351,-0.98808 -0.769068,-2.02924 -0.993556,-3.08907 -0.02586,0.11426 -0.05173,0.22851 -0.0776,0.34277 z" />
        <path
           id="path9"
           style="opacity:1;fill:#ffffff;fill-opacity:1;stroke:none;stroke-width:4.89339;stroke-linecap:round;stroke-linejoin:round;stroke-dasharray:none;stroke-opacity:1"
           d="m 121.98198,169.0732 c 0.70103,-3.04595 0.0722,-6.33964 -1.70163,-8.9134 -2.49113,-3.75363 -6.61345,-6.11093 -10.70204,-7.6258 -7.34519,-2.60965 -15.3522,-2.91751 -23.05462,-1.87329 -0.99798,0.14099 -1.9909,0.315 -2.98126,0.50187 8.58709,-0.46946 17.43418,0.50366 25.32875,4.08257 5.01127,2.30927 9.74913,5.92377 12.03964,11.08173 0.44635,0.98807 0.76907,2.02923 0.99356,3.08906 0.0259,-0.11426 0.0517,-0.22851 0.0776,-0.34277 z" />
      </g>
      <path
         style="fill:none;fill-opacity:1;stroke-width:0.264583"
         d="m 73.562436,208.95571 c 13.024527,-31.77377 -55.167693,-27.7275 13.024527,-31.77377 68.192217,-4.04626 63.949587,-28.12334 68.192217,-4.04626 4.24263,24.07708 89.10774,12.39097 4.30258,24.07708"
         id="path1" />
      <g
         id="g5"
         transform="translate(-67.434644,-42.583447)">
        <path
           id="path3"
           style="font-weight:bold;font-size:23.5617px;font-family:'Noto Serif Georgian';-inkscape-font-specification:'Noto Serif Georgian';fill:#1be8ff;fill-opacity:1;stroke:#1be8ff;stroke-width:5.826;stroke-linecap:round;stroke-linejoin:round;stroke-dasharray:none;stroke-opacity:1"
           d="m 96.732227,131.42963 c -1.45052,0.416 -2.724633,1.051 -3.823217,1.912 -1.102951,0.861 -2.034041,1.906 -2.790475,3.144 -0.759053,1.261 -1.337863,2.676 -1.731449,4.252 -0.402931,1.614 -0.506153,2.972 -0.299884,4.055 0.223559,1.094 0.793897,1.819 1.709006,2.164 0.930129,0.34 2.222058,0.22 3.858582,-0.354 1.626047,-0.571 3.005827,-1.379 4.141087,-2.416 1.11343,-1.019 1.9937,-2.188 2.646033,-3.503 0.65409,-1.304 1.0916,-2.694 1.31953,-4.164 0.22268,-1.438 0.1895,-2.595 -0.0943,-3.485 -0.26722,-0.896 -0.80167,-1.483 -1.6077,-1.767 -0.803423,-0.297 -1.907243,-0.245 -3.327193,0.162 z m 13.682533,-3.903 c -1.17631,0.337 -2.21376,0.892 -3.11237,1.673 -0.90297,0.79 -1.64875,1.748 -2.23297,2.882 -0.59645,1.156 -0.99379,2.423 -1.18591,3.802 -0.20086,1.436 -0.16942,2.653 0.0987,3.637 0.27333,0.982 0.81389,1.646 1.6208,1.983 0.82088,0.318 1.91073,0.239 3.25646,-0.233 0.69076,-0.243 1.31603,-0.521 1.87667,-0.837 0.55628,-0.313 1.11955,-0.693 1.6898,-1.138 l 0.17815,-2.49 c -0.60344,0.429 -1.1667,0.796 -1.69067,1.099 -0.51524,0.302 -1.03396,0.541 -1.55531,0.718 -1.12304,0.38 -1.90287,0.244 -2.32903,-0.409 -0.40957,-0.665 -0.52572,-1.738 -0.35194,-3.197 0.16767,-1.415 0.5624,-2.588 1.17893,-3.531 0.60606,-0.927 1.39026,-1.529 2.35436,-1.815 0.42965,-0.127 0.85581,-0.176 1.27848,-0.145 0.43402,0.028 0.85843,0.085 1.27586,0.173 l 0.93441,-2.307 c -0.50039,-0.104 -1.03222,-0.145 -1.59548,-0.123 -0.55366,0.008 -1.11693,0.094 -1.68892,0.258 z m -35.577815,10.386 -6.161068,17.211 3.85701,-1.349 2.599838,-7.759 6.489944,-2.085 -2.176035,7.426 3.530927,-1.235 4.275572,-15.777 -3.081014,0.885 -1.722193,5.878 -6.330746,1.964 2.049847,-6.117 z m 40.855905,-11.74 -0.66631,12.741 2.55521,-0.894 0.15807,-4.757 1.04444,-1.15 2.90365,4.471 2.71677,-0.95 -3.90618,-5.731 3.6538,-6.16 -2.41025,0.692 -2.94557,4.772 c -0.16068,0.283 -0.32311,0.569 -0.48554,0.855 -0.16417,0.289 -0.32835,0.578 -0.4934,0.87 l 0.17989,-5.421 z m 9.75365,-2.802 0.35019,11.776 6.10771,-2.136 -0.1668,-2.123 -3.7551,1.269 -0.14758,-3.091 3.41801,-1.098 -0.14846,-1.945 -3.36561,1.045 -0.11615,-2.439 3.54115,-1.053 -0.14147,-1.807 z m 6.34961,-1.825 3.77431,5.612 0.49515,4.398 2.03823,-0.713 -0.57025,-4.401 2.06705,-7.138 -1.97448,0.567 -1.3335,4.741 -2.37881,-3.674 z m -35.539823,12.247 c 1.20076,-0.356 1.9806,-0.207 2.35174,0.449 0.37376,0.662 0.4314,1.729 0.16767,3.224 -0.2681,1.516 -0.75713,2.828 -1.47235,3.926 -0.72657,1.105 -1.74918,1.886 -3.067827,2.333 -1.307298,0.443 -2.162238,0.288 -2.551458,-0.463 -0.382321,-0.759 -0.388347,-1.947 -0.02663,-3.54 0.356472,-1.57 0.913624,-2.86 1.668137,-3.885 0.739667,-1.006 1.716866,-1.684 2.930728,-2.044 z" />
        <path
           id="path2"
           style="font-weight:bold;font-size:23.5617px;font-family:'Noto Serif Georgian';-inkscape-font-specification:'Noto Serif Georgian';fill:#000000;fill-opacity:1;stroke:#000000;stroke-width:3.826;stroke-linecap:round;stroke-linejoin:round;stroke-dasharray:none"
           d="m 96.732227,131.42963 c -1.45052,0.416 -2.724633,1.051 -3.823217,1.912 -1.102951,0.861 -2.034041,1.906 -2.790475,3.144 -0.759053,1.261 -1.337863,2.676 -1.731449,4.252 -0.402931,1.614 -0.506153,2.972 -0.299884,4.055 0.223559,1.094 0.793897,1.819 1.709006,2.164 0.930129,0.34 2.222058,0.22 3.858582,-0.354 1.626047,-0.571 3.005827,-1.379 4.141087,-2.416 1.11343,-1.019 1.9937,-2.188 2.646033,-3.503 0.65409,-1.304 1.0916,-2.694 1.31953,-4.164 0.22268,-1.438 0.1895,-2.595 -0.0943,-3.485 -0.26722,-0.896 -0.80167,-1.483 -1.6077,-1.767 -0.803423,-0.297 -1.907243,-0.245 -3.327193,0.162 z m 13.682533,-3.903 c -1.17631,0.337 -2.21376,0.892 -3.11237,1.673 -0.90297,0.79 -1.64875,1.748 -2.23297,2.882 -0.59645,1.156 -0.99379,2.423 -1.18591,3.802 -0.20086,1.436 -0.16942,2.653 0.0987,3.637 0.27333,0.982 0.81389,1.646 1.6208,1.983 0.82088,0.318 1.91073,0.239 3.25646,-0.233 0.69076,-0.243 1.31603,-0.521 1.87667,-0.837 0.55628,-0.313 1.11955,-0.693 1.6898,-1.138 l 0.17815,-2.49 c -0.60344,0.429 -1.1667,0.796 -1.69067,1.099 -0.51524,0.302 -1.03396,0.541 -1.55531,0.718 -1.12304,0.38 -1.90287,0.244 -2.32903,-0.409 -0.40957,-0.665 -0.52572,-1.738 -0.35194,-3.197 0.16767,-1.415 0.5624,-2.588 1.17893,-3.531 0.60606,-0.927 1.39026,-1.529 2.35436,-1.815 0.42965,-0.127 0.85581,-0.176 1.27848,-0.145 0.43402,0.028 0.85843,0.085 1.27586,0.173 l 0.93441,-2.307 c -0.50039,-0.104 -1.03222,-0.145 -1.59548,-0.123 -0.55366,0.008 -1.11693,0.094 -1.68892,0.258 z m -35.577815,10.386 -6.161068,17.211 3.85701,-1.349 2.599838,-7.759 6.489944,-2.085 -2.176035,7.426 3.530927,-1.235 4.275572,-15.777 -3.081014,0.885 -1.722193,5.878 -6.330746,1.964 2.049847,-6.117 z m 40.855905,-11.74 -0.66631,12.741 2.55521,-0.894 0.15807,-4.757 1.04444,-1.15 2.90365,4.471 2.71677,-0.95 -3.90618,-5.731 3.6538,-6.16 -2.41025,0.692 -2.94557,4.772 c -0.16068,0.283 -0.32311,0.569 -0.48554,0.855 -0.16417,0.289 -0.32835,0.578 -0.4934,0.87 l 0.17989,-5.421 z m 9.75365,-2.802 0.35019,11.776 6.10771,-2.136 -0.1668,-2.123 -3.7551,1.269 -0.14758,-3.091 3.41801,-1.098 -0.14846,-1.945 -3.36561,1.045 -0.11615,-2.439 3.54115,-1.053 -0.14147,-1.807 z m 6.34961,-1.825 3.77431,5.612 0.49515,4.398 2.03823,-0.713 -0.57025,-4.401 2.06705,-7.138 -1.97448,0.567 -1.3335,4.741 -2.37881,-3.674 z m -35.539823,12.247 c 1.20076,-0.356 1.9806,-0.207 2.35174,0.449 0.37376,0.662 0.4314,1.729 0.16767,3.224 -0.2681,1.516 -0.75713,2.828 -1.47235,3.926 -0.72657,1.105 -1.74918,1.886 -3.067827,2.333 -1.307298,0.443 -2.162238,0.288 -2.551458,-0.463 -0.382321,-0.759 -0.388347,-1.947 -0.02663,-3.54 0.356472,-1.57 0.913624,-2.86 1.668137,-3.885 0.739667,-1.006 1.716866,-1.684 2.930728,-2.044 z" />
        <path
           id="text1"
           style="font-weight:bold;font-size:23.5617px;font-family:'Noto Serif Georgian';-inkscape-font-specification:'Noto Serif Georgian';fill:#cccccc;fill-opacity:1;stroke-width:0.825684"
           d="m 96.732227,131.42963 c -1.45052,0.416 -2.724633,1.051 -3.823217,1.912 -1.102951,0.861 -2.034041,1.906 -2.790475,3.144 -0.759053,1.261 -1.337863,2.676 -1.731449,4.252 -0.402931,1.614 -0.506153,2.972 -0.299884,4.055 0.223559,1.094 0.793897,1.819 1.709006,2.164 0.930129,0.34 2.222058,0.22 3.858582,-0.354 1.626047,-0.571 3.005827,-1.379 4.141087,-2.416 1.11343,-1.019 1.9937,-2.188 2.646033,-3.503 0.65409,-1.304 1.0916,-2.694 1.31953,-4.164 0.22268,-1.438 0.1895,-2.595 -0.0943,-3.485 -0.26722,-0.896 -0.80167,-1.483 -1.6077,-1.767 -0.803423,-0.297 -1.907243,-0.245 -3.327193,0.162 z m 13.682533,-3.903 c -1.17631,0.337 -2.21376,0.892 -3.11237,1.673 -0.90297,0.79 -1.64875,1.748 -2.23297,2.882 -0.59645,1.156 -0.99379,2.423 -1.18591,3.802 -0.20086,1.436 -0.16942,2.653 0.0987,3.637 0.27333,0.982 0.81389,1.646 1.6208,1.983 0.82088,0.318 1.91073,0.239 3.25646,-0.233 0.69076,-0.243 1.31603,-0.521 1.87667,-0.837 0.55628,-0.313 1.11955,-0.693 1.6898,-1.138 l 0.17815,-2.49 c -0.60344,0.429 -1.1667,0.796 -1.69067,1.099 -0.51524,0.302 -1.03396,0.541 -1.55531,0.718 -1.12304,0.38 -1.90287,0.244 -2.32903,-0.409 -0.40957,-0.665 -0.52572,-1.738 -0.35194,-3.197 0.16767,-1.415 0.5624,-2.588 1.17893,-3.531 0.60606,-0.927 1.39026,-1.529 2.35436,-1.815 0.42965,-0.127 0.85581,-0.176 1.27848,-0.145 0.43402,0.028 0.85843,0.085 1.27586,0.173 l 0.93441,-2.307 c -0.50039,-0.104 -1.03222,-0.145 -1.59548,-0.123 -0.55366,0.008 -1.11693,0.094 -1.68892,0.258 z m -35.577815,10.386 -6.161068,17.211 3.85701,-1.349 2.599838,-7.759 6.489944,-2.085 -2.176035,7.426 3.530927,-1.235 4.275572,-15.777 -3.081014,0.885 -1.722193,5.878 -6.330746,1.964 2.049847,-6.117 z m 40.855905,-11.74 -0.66631,12.741 2.55521,-0.894 0.15807,-4.757 1.04444,-1.15 2.90365,4.471 2.71677,-0.95 -3.90618,-5.731 3.6538,-6.16 -2.41025,0.692 -2.94557,4.772 c -0.16068,0.283 -0.32311,0.569 -0.48554,0.855 -0.16417,0.289 -0.32835,0.578 -0.4934,0.87 l 0.17989,-5.421 z m 9.75365,-2.802 0.35019,11.776 6.10771,-2.136 -0.1668,-2.123 -3.7551,1.269 -0.14758,-3.091 3.41801,-1.098 -0.14846,-1.945 -3.36561,1.045 -0.11615,-2.439 3.54115,-1.053 -0.14147,-1.807 z m 6.34961,-1.825 3.77431,5.612 0.49515,4.398 2.03823,-0.713 -0.57025,-4.401 2.06705,-7.138 -1.97448,0.567 -1.3335,4.741 -2.37881,-3.674 z m -35.539823,12.247 c 1.20076,-0.356 1.9806,-0.207 2.35174,0.449 0.37376,0.662 0.4314,1.729 0.16767,3.224 -0.2681,1.516 -0.75713,2.828 -1.47235,3.926 -0.72657,1.105 -1.74918,1.886 -3.067827,2.333 -1.307298,0.443 -2.162238,0.288 -2.551458,-0.463 -0.382321,-0.759 -0.388347,-1.947 -0.02663,-3.54 0.356472,-1.57 0.913624,-2.86 1.668137,-3.885 0.739667,-1.006 1.716866,-1.684 2.930728,-2.044 z" />
        <path
           id="path4"
           style="font-weight:bold;font-size:23.5617px;font-family:'Noto Serif Georgian';-inkscape-font-specification:'Noto Serif Georgian';fill:#ffffff;fill-opacity:1;stroke-width:0.825684"
           d="m 139.60078,119.30383 -1.97456,0.56689 -1.05678,3.75739 1.95544,-0.60926 z m -5.68699,1.63401 -2.1177,0.60771 1.98437,2.95073 2.0283,-0.63149 z m -2.8913,0.83095 -5.57588,1.60197 0.10955,3.68712 2.15026,-0.66973 -0.0837,-1.75958 3.54139,-1.05317 z m -6.87038,1.97404 -2.41019,0.69195 -2.91248,4.71806 2.59312,-0.8077 z m -6.15466,1.76786 -2.30477,0.66197 -0.21032,4.02249 2.38435,-0.74259 z m -5.8937,1.75803 c -0.55366,0.008 -1.11679,0.0939 -1.68878,0.25786 -1.17631,0.337 -2.21387,0.89229 -3.11248,1.67329 -0.90296,0.78999 -1.64871,1.74799 -2.23293,2.88199 -0.25691,0.49793 -0.4691,1.0204 -0.65164,1.5596 l 2.80344,-0.87334 c 0.17752,-0.46306 0.38261,-0.8972 0.63459,-1.28261 0.60606,-0.92699 1.39028,-1.52887 2.35438,-1.81487 0.42965,-0.127 0.8558,-0.17621 1.27847,-0.14521 0.43402,0.028 0.85846,0.0851 1.27589,0.17311 l 0.93431,-2.30683 c -0.50039,-0.104 -1.03199,-0.14499 -1.59525,-0.12299 z m -13.476695,3.81579 c -0.553876,0.0267 -1.185001,0.14169 -1.894975,0.34519 -1.450518,0.416 -2.724439,1.05103 -3.823022,1.91203 -1.10295,0.861 -2.034094,1.906 -2.790528,3.144 -0.361021,0.59975 -0.678109,1.23667 -0.957047,1.90686 l 3.281453,-1.02216 c 0.257105,-0.56167 0.547243,-1.07813 0.882634,-1.53376 0.739666,-1.006 1.716709,-1.6838 2.93057,-2.0438 1.200759,-0.356 1.980655,-0.20745 2.351795,0.44855 0.16335,0.28932 0.254991,0.67077 0.297139,1.11673 l 2.986896,-0.93018 c -0.0247,-0.51842 -0.0953,-0.98722 -0.22479,-1.3932 -0.26722,-0.896 -0.80163,-1.48333 -1.60765,-1.76733 -0.401716,-0.1485 -0.878599,-0.20968 -1.432475,-0.18293 z m -11.373983,3.26026 -3.080949,0.8847 -1.520837,5.1909 3.22771,-1.00562 z m -9.0842,2.60966 -3.332096,0.95808 -1.990576,5.56142 3.504178,-1.09141 z" />
      </g>
      <ellipse
         style="opacity:0.409331;fill:#ff0000;fill-opacity:1;stroke-width:5.39273;stroke-linecap:round;stroke-linejoin:round"
         id="path10"
         ry="23.416336"
         rx="61.129913"
         cy="180.77023"
         cx="80.460205" />
      <ellipse
         style="opacity:0.409331;fill:#00ff00;fill-opacity:1;stroke-width:5.39273;stroke-linecap:round;stroke-linejoin:round"
         id="ellipse10"
         ry="23.416336"
         rx="61.129913"
         cy="216.60071"
         cx="76.809448" />
    </g>
  </g>
</svg>
